# xmcd
#
# Track frame offsets: 
#        150
#        13842
#        25680
#        39771
#        53726
#        67377
#        80667
#        94396
#        108689
#        127747
#        136207
#        146453
#        156494
#        166119
#        185364
#        194220
#        208807
#        220367
#
# Disc length: 3093 seconds
#
# Revision: 0
# Processed by: cddbd v1.5.2PL0 Copyright (c) Steve Scherf et al.
# Submitted via: ExactAudioCopy v0.95b4
#
DISCID=0d0c1312
DTITLE=Lead Belly - Lead Belly 1933-1946 - Disc 2
DYEAR=2003
DGENRE=R&B
TTITLE0=Pick a Bale of Cotton
TTITLE1=Rock Island Line
TTITLE2=Whoa Back Buck
TTITLE3=Midnight Special
TTITLE4=Take This Hammer
TTITLE5=Can't You Line'em
TTITLE6=New York City Blues
TTITLE7=Worried Blues
TTITLE8=Hitler Blues
TTITLE9=Goodnight Irene
TTITLE10=John Henry
TTITLE11=How Long
TTITLE12=Rider Blues
TTITLE13=John Hardy
TTITLE14=House of the Rising Sun
TTITLE15=National Defense Blues
TTITLE16=Pigmeat Blues
TTITLE17=Hollywood and Vine
EXTD=
EXTT0=
EXTT1=
EXTT2=
EXTT3=
EXTT4=
EXTT5=
EXTT6=
EXTT7=
EXTT8=
EXTT9=
EXTT10=
EXTT11=
EXTT12=
EXTT13=
EXTT14=
EXTT15=
EXTT16=
EXTT17=
PLAYORDER=
